<?xml version="1.0" encoding="utf-8"?>
<!-- Generator: Adobe Illustrator 27.7.0, SVG Export Plug-In . SVG Version: 6.00 Build 0)  -->
<svg version="1.1" id="Layer_1" xmlns="http://www.w3.org/2000/svg" xmlns:xlink="http://www.w3.org/1999/xlink" x="0px" y="0px"
	 viewBox="0 0 122 20" style="enable-background:new 0 0 122 20;" xml:space="preserve">
<style type="text/css">
	.st0{fill:#F75258;}
</style>
<path class="st0" d="M55.5,0l-4.6,1.5v3.1h-2.3v2.8h2.3v7.5c0,3.6,1.3,5.1,4.4,5.1c1.4,0,2.3-0.4,2.6-0.9v-3.2
	c-0.4,0.2-0.9,0.3-1.4,0.3c-0.9,0-1.1-0.6-1.1-1.4V7.4h2.4V4.6h-2.4V0z M86.9,0l-4.6,1.5v3.1H80v2.8h2.3v7.5c0,3.6,1.3,5.1,4.4,5.1
	c1.4,0,2.3-0.4,2.6-0.9v-3.2c-0.4,0.2-0.9,0.3-1.4,0.3c-0.9,0-1-0.6-1-1.4V7.4h2.4V4.6h-2.4L86.9,0z M95.6,6.4V4.6h-4.8v15.1h4.5
	v-7.6h0c0,0,0,0,0,0c0-2.4,2.4-4.4,5.4-4.4c0.5,0,1,0.1,1.4,0.2V4.2c-0.1,0-0.3,0-0.4,0C99.3,4.2,97.2,5.1,95.6,6.4z M106.6,10.3
	c0.7-1.5,2.2-2.8,5.2-2.8c3,0,5.1,1.3,5.3,2.8H106.6z M122,12.1c0-3.6-2.6-7.9-9.9-7.9s-9.9,4.2-9.9,7.9c0,3.6,2.6,7.9,9.9,7.9
	c5.3,0,8.1-2.2,9.3-4.8H117c-1,0.9-2.4,1.6-4.9,1.6c-3.8,0-5.1-1.6-5.7-3.3h15.5C122,13,122,12.6,122,12.1 M75.3,15.3
	c-0.8,0.8-3.5,1.6-5.7,1.6c-4.3,0-5-0.9-5-2.1c0-1.1,0.7-2.1,5-2.1c2.2,0,4.9,0.8,5.7,1.6V15.3z M79.4,15v-3.2c0-2.8-1.4-5-4.1-6.3
	c-1.8-0.9-4.2-1.3-7.1-1.3c-4.3,0-7,1-8.5,1.8c0,0,1.9,3.1,1.9,3.1s2.3-1.4,6.6-1.4c2.3,0,4.2,0.3,5.5,0.9c1.3,0.6,1.9,1.5,2,2.8
	c-1.7-1-4.2-1.7-6.9-1.7c-6.6,0-9.1,2.7-9.1,5.1c0,2.4,1.1,5.1,9.1,5.1c2.9,0,5.2-0.9,6.9-2c0.7,1.2,1.6,2,3.1,2
	c0.8,0,1.5-0.2,2.2-0.6v-3.5C80.9,15.9,79.4,16.4,79.4,15z M42.7,19.7h4.8V0l-4.8,1.6V19.7z M9.9,16.6c-3,0-5.4-2-5.4-4.4
	c0-2.4,2.4-4.4,5.4-4.4c3,0,5.4,2,5.4,4.4C15.3,14.6,12.9,16.6,9.9,16.6z M15.3,6.7c-1.6-1.5-3.9-2.5-6.4-2.5C4,4.2,0,7.8,0,12.1
	C0,16.5,4,20,8.8,20c2.6,0,4.9-1,6.6-2.6v2.2H20V0l-4.7,1.5L15.3,6.7L15.3,6.7z M25.8,10.3C26.5,8.8,28,7.4,31,7.4
	c3,0,5.1,1.3,5.3,2.8H25.8z M31.3,4.2c-7.3,0-9.9,4.2-9.9,7.9c0,3.6,2.6,7.9,9.9,7.9c5.3,0,8.1-2.2,9.3-4.8h-4.3
	c-1,0.9-2.4,1.6-4.9,1.6c-3.8,0-5.1-1.6-5.7-3.3h15.5c0.1-0.5,0.1-0.9,0.1-1.4C41.2,8.5,38.6,4.2,31.3,4.2z"/>
</svg>
